<svg width="28" height="28" viewBox="0 0 28 28" fill="none" xmlns="http://www.w3.org/2000/svg">
<path d="M14 13.6667C15.2887 13.6667 16.3334 12.622 16.3334 11.3333C16.3334 10.0447 15.2887 9 14 9C12.7114 9 11.6667 10.0447 11.6667 11.3333C11.6667 12.622 12.7114 13.6667 14 13.6667Z" stroke="#016B38" stroke-width="2" stroke-linecap="round" stroke-linejoin="round"/>
<path d="M14 24.5C14 24.5 22.1666 18.8462 22.1666 11.5769C22.1666 9.43479 21.3062 7.38039 19.7747 5.86568C18.2431 4.35096 16.1659 3.5 14 3.5C11.834 3.5 9.75682 4.35096 8.22527 5.86568C6.69373 7.38039 5.83331 9.43479 5.83331 11.5769C5.83331 18.8462 14 24.5 14 24.5Z" stroke="#016B38" stroke-width="2" stroke-linecap="round" stroke-linejoin="round"/>
</svg>
