<svg width="21" height="21" viewBox="0 0 21 21" fill="none" xmlns="http://www.w3.org/2000/svg">
<path d="M11.5417 6.33333C12.3705 6.33333 13.1653 6.66257 13.7514 7.24862C14.3374 7.83468 14.6667 8.62953 14.6667 9.45833C14.6667 9.7346 14.7764 9.99955 14.9718 10.1949C15.1671 10.3903 15.4321 10.5 15.7083 10.5C15.9846 10.5 16.2496 10.3903 16.4449 10.1949C16.6403 9.99955 16.75 9.7346 16.75 9.45833C16.75 8.077 16.2013 6.75224 15.2245 5.77549C14.2478 4.79873 12.923 4.25 11.5417 4.25C11.2654 4.25 11.0004 4.35975 10.8051 4.5551C10.6097 4.75045 10.5 5.0154 10.5 5.29167C10.5 5.56793 10.6097 5.83289 10.8051 6.02824C11.0004 6.22359 11.2654 6.33333 11.5417 6.33333Z" fill="#016B38"/>
<path d="M11.5416 2.16683C13.4755 2.16683 15.3302 2.93506 16.6976 4.30251C18.0651 5.66996 18.8333 7.52463 18.8333 9.4585C18.8333 9.73476 18.9431 9.99972 19.1384 10.1951C19.3338 10.3904 19.5987 10.5002 19.875 10.5002C20.1512 10.5002 20.4162 10.3904 20.6116 10.1951C20.8069 9.99972 20.9166 9.73476 20.9166 9.4585C20.9166 6.97209 19.9289 4.58752 18.1708 2.82937C16.4126 1.07122 14.0281 0.0834961 11.5416 0.0834961C11.2654 0.0834961 11.0004 0.193243 10.8051 0.388593C10.6097 0.583944 10.5 0.848896 10.5 1.12516C10.5 1.40143 10.6097 1.66638 10.8051 1.86173C11.0004 2.05708 11.2654 2.16683 11.5416 2.16683ZM20.6562 14.5731C20.5989 14.4059 20.5 14.256 20.3688 14.1375C20.2376 14.0191 20.0784 13.9359 19.9062 13.896L13.6562 12.4689C13.4866 12.4304 13.31 12.4351 13.1426 12.4824C12.9752 12.5297 12.8223 12.6182 12.6979 12.7397C12.5521 12.8752 12.5416 12.8856 11.8646 14.1772C9.6179 13.142 7.81768 11.3344 6.79165 9.0835C8.11456 8.41683 8.12498 8.41683 8.2604 8.26058C8.38197 8.13616 8.47045 7.98327 8.51776 7.81588C8.56506 7.64848 8.5697 7.4719 8.53123 7.30225L7.10415 1.12516C7.0642 0.952971 6.98108 0.793778 6.86263 0.662571C6.74418 0.531363 6.59429 0.432457 6.42706 0.375163C6.1838 0.288277 5.9326 0.225476 5.67706 0.187663C5.41378 0.126616 5.14512 0.0917246 4.87498 0.0834961C3.60415 0.0834961 2.38537 0.588331 1.48676 1.48694C0.588148 2.38555 0.083313 3.60433 0.083313 4.87516C0.0888254 9.12799 1.78069 13.205 4.7879 16.2122C7.7951 19.2194 11.8722 20.9113 16.125 20.9168C16.7542 20.9168 17.3773 20.7929 17.9587 20.5521C18.54 20.3113 19.0683 19.9583 19.5132 19.5134C19.9581 19.0684 20.3111 18.5402 20.5519 17.9589C20.7927 17.3775 20.9166 16.7544 20.9166 16.1252C20.917 15.86 20.8961 15.5953 20.8541 15.3335C20.8104 15.0748 20.7441 14.8203 20.6562 14.5731ZM16.125 18.8335C12.4238 18.8307 8.87509 17.3592 6.258 14.7421C3.6409 12.1251 2.16941 8.5763 2.16665 4.87516C2.16939 4.15771 2.45561 3.47043 2.96293 2.96311C3.47025 2.4558 4.15753 2.16957 4.87498 2.16683H5.21873L6.33331 7.00016L5.77081 7.29183C4.87498 7.76058 4.16665 8.13558 4.54165 8.94808C5.1523 10.6768 6.14037 12.2478 7.43408 13.5469C8.72779 14.846 10.2946 15.8406 12.0208 16.4585C12.8958 16.8127 13.2396 16.1564 13.7083 15.2502L14.0104 14.6772L18.8333 15.7814V16.1252C18.8306 16.8426 18.5443 17.5299 18.037 18.0372C17.5297 18.5445 16.8424 18.8308 16.125 18.8335Z" fill="#016B38"/>
</svg>
