<svg width="20" height="20" viewBox="0 0 20 20" fill="none" xmlns="http://www.w3.org/2000/svg">
<g clip-path="url(#clip0_34_93)">
<path fill-rule="evenodd" clip-rule="evenodd" d="M6.22081 0.888496C7.19831 0.843496 7.50998 0.833496 9.99998 0.833496C12.49 0.833496 12.8016 0.844329 13.7783 0.888496C14.755 0.932663 15.4216 1.0885 16.005 1.31433C16.6158 1.54516 17.17 1.906 17.6283 2.37266C18.095 2.83016 18.455 3.3835 18.685 3.99516C18.9116 4.5785 19.0666 5.24516 19.1116 6.22016C19.1566 7.19933 19.1666 7.51099 19.1666 10.0002C19.1666 12.4902 19.1558 12.8018 19.1116 13.7793C19.0675 14.7543 18.9116 15.421 18.685 16.0043C18.455 16.6161 18.0944 17.1703 17.6283 17.6285C17.17 18.0952 16.6158 18.4552 16.005 18.6852C15.4216 18.9118 14.755 19.0668 13.78 19.1118C12.8016 19.1568 12.49 19.1668 9.99998 19.1668C7.50998 19.1668 7.19831 19.156 6.22081 19.1118C5.24581 19.0677 4.57915 18.9118 3.99581 18.6852C3.38408 18.4551 2.82983 18.0945 2.37165 17.6285C1.9053 17.1707 1.54441 16.6167 1.31415 16.0052C1.08831 15.4218 0.933313 14.7552 0.888313 13.7802C0.843313 12.801 0.833313 12.4893 0.833313 10.0002C0.833313 7.51016 0.844146 7.19849 0.888313 6.22183C0.93248 5.24516 1.08831 4.5785 1.31415 3.99516C1.54475 3.38356 1.90591 2.82959 2.37248 2.37183C2.83001 1.90558 3.38371 1.5447 3.99498 1.31433C4.57831 1.0885 5.24498 0.933496 6.21998 0.888496H6.22081ZM13.7041 2.5385C12.7375 2.49433 12.4475 2.48516 9.99998 2.48516C7.55248 2.48516 7.26248 2.49433 6.29581 2.5385C5.40165 2.57933 4.91665 2.7285 4.59331 2.85433C4.16581 3.021 3.85998 3.2185 3.53915 3.53933C3.23502 3.83521 3.00096 4.1954 2.85415 4.5935C2.72831 4.91683 2.57915 5.40183 2.53831 6.296C2.49415 7.26266 2.48498 7.55266 2.48498 10.0002C2.48498 12.4477 2.49415 12.7377 2.53831 13.7043C2.57915 14.5985 2.72831 15.0835 2.85415 15.4068C3.00081 15.8043 3.23498 16.1652 3.53915 16.461C3.83498 16.7652 4.19581 16.9993 4.59331 17.146C4.91665 17.2718 5.40165 17.421 6.29581 17.4618C7.26248 17.506 7.55165 17.5152 9.99998 17.5152C12.4483 17.5152 12.7375 17.506 13.7041 17.4618C14.5983 17.421 15.0833 17.2718 15.4066 17.146C15.8341 16.9793 16.14 16.7818 16.4608 16.461C16.765 16.1652 16.9991 15.8043 17.1458 15.4068C17.2716 15.0835 17.4208 14.5985 17.4616 13.7043C17.5058 12.7377 17.515 12.4477 17.515 10.0002C17.515 7.55266 17.5058 7.26266 17.4616 6.296C17.4208 5.40183 17.2716 4.91683 17.1458 4.5935C16.9791 4.166 16.7816 3.86016 16.4608 3.53933C16.1649 3.23522 15.8047 3.00117 15.4066 2.85433C15.0833 2.7285 14.5983 2.57933 13.7041 2.5385ZM8.82915 12.826C9.48303 13.0982 10.2111 13.1349 10.8891 12.9299C11.567 12.7249 12.1528 12.2909 12.5463 11.702C12.9398 11.1131 13.1167 10.4059 13.0467 9.70108C12.9767 8.99628 12.6641 8.33764 12.1625 7.83766C11.8427 7.51806 11.456 7.27334 11.0303 7.12112C10.6045 6.9689 10.1503 6.91296 9.70039 6.95734C9.25045 7.00172 8.81594 7.14531 8.42815 7.37777C8.04036 7.61023 7.70893 7.92578 7.45773 8.3017C7.20653 8.67763 7.0418 9.10457 6.97541 9.5518C6.90901 9.99902 6.94261 10.4554 7.07376 10.8881C7.20492 11.3208 7.43038 11.719 7.73391 12.0541C8.03745 12.3892 8.4115 12.6528 8.82915 12.826ZM6.66831 6.6685C7.10583 6.23097 7.62525 5.88391 8.19689 5.64713C8.76854 5.41035 9.38123 5.28847 9.99998 5.28847C10.6187 5.28847 11.2314 5.41035 11.8031 5.64713C12.3747 5.88391 12.8941 6.23097 13.3316 6.6685C13.7692 7.10602 14.1162 7.62543 14.353 8.19708C14.5898 8.76872 14.7117 9.38141 14.7117 10.0002C14.7117 10.6189 14.5898 11.2316 14.353 11.8032C14.1162 12.3749 13.7692 12.8943 13.3316 13.3318C12.448 14.2154 11.2496 14.7118 9.99998 14.7118C8.75036 14.7118 7.55193 14.2154 6.66831 13.3318C5.7847 12.4482 5.28829 11.2498 5.28829 10.0002C5.28829 8.75054 5.7847 7.55211 6.66831 6.6685ZM15.7566 5.99016C15.8651 5.88789 15.9519 5.7649 16.0119 5.62847C16.0719 5.49205 16.104 5.34497 16.1062 5.19594C16.1083 5.0469 16.0806 4.89895 16.0245 4.76084C15.9685 4.62272 15.8853 4.49725 15.7799 4.39186C15.6746 4.28647 15.5491 4.20329 15.411 4.14726C15.2729 4.09123 15.1249 4.06348 14.9759 4.06565C14.8268 4.06782 14.6798 4.09987 14.5433 4.15991C14.4069 4.21994 14.2839 4.30674 14.1816 4.41516C13.9827 4.62602 13.8738 4.9061 13.8781 5.19594C13.8823 5.48578 13.9993 5.76256 14.2043 5.96753C14.4092 6.1725 14.686 6.28952 14.9759 6.29374C15.2657 6.29797 15.5458 6.18907 15.7566 5.99016Z" fill="white"/>
</g>
<defs>
<clipPath id="clip0_34_93">
<rect width="20" height="20" fill="white"/>
</clipPath>
</defs>
</svg>
