<svg width="21" height="21" viewBox="0 0 21 21" fill="none" xmlns="http://www.w3.org/2000/svg">
<path fill-rule="evenodd" clip-rule="evenodd" d="M16.1026 4.9289C15.3749 4.19642 14.5091 3.61563 13.5554 3.22016C12.6016 2.82468 11.5789 2.6224 10.5464 2.62503C6.21688 2.62503 2.69238 6.14865 2.69063 10.4799C2.69063 11.8642 3.052 13.2151 3.73887 14.4069L2.625 18.4765L6.78912 17.3837C7.94097 18.0107 9.23142 18.3395 10.5429 18.34H10.5464C14.875 18.34 18.3995 14.8164 18.4012 10.4851C18.4042 9.45307 18.2026 8.43064 17.8081 7.47695C17.4135 6.52326 16.8339 5.65723 16.1026 4.9289ZM10.5464 17.0144H10.5437C9.37433 17.0145 8.22643 16.6999 7.2205 16.1035L6.9825 15.9618L4.5115 16.6101L5.17037 14.2013L5.0155 13.9545C4.36169 12.9136 4.01558 11.7091 4.01713 10.4799C4.01888 6.88015 6.9475 3.95153 10.549 3.95153C11.4067 3.94962 12.2563 4.11785 13.0486 4.44647C13.8408 4.77509 14.5601 5.25759 15.1646 5.86603C15.7724 6.47156 16.2542 7.19156 16.582 7.9844C16.9099 8.77724 17.0774 9.6272 17.0747 10.4851C17.073 14.0849 14.1444 17.0144 10.5464 17.0144ZM14.1277 12.124C13.9309 12.0252 12.9666 11.5509 12.7864 11.4853C12.607 11.4197 12.4766 11.3873 12.3454 11.5833C12.2141 11.7793 11.8379 12.2211 11.7232 12.3524C11.6086 12.4836 11.494 12.4994 11.298 12.4014C11.102 12.3034 10.4694 12.096 9.7195 11.4275C9.13587 10.9069 8.74212 10.2646 8.6275 10.0678C8.51287 9.8709 8.61525 9.76503 8.71412 9.66703C8.8025 9.57953 8.91012 9.43777 9.00812 9.32315C9.10612 9.20852 9.1385 9.12715 9.20412 8.9959C9.26975 8.86465 9.23737 8.75002 9.1875 8.65202C9.1385 8.55315 8.74562 7.58715 8.582 7.19427C8.42362 6.81365 8.26175 6.8644 8.141 6.85915C8.01594 6.85403 7.89079 6.8517 7.76562 6.85215C7.6661 6.85469 7.56817 6.87776 7.47798 6.91992C7.38779 6.96208 7.30728 7.02242 7.2415 7.09715C7.06125 7.29402 6.55462 7.76828 6.55462 8.73428C6.55462 9.70028 7.25812 10.6339 7.35612 10.7652C7.45412 10.8964 8.74038 12.8783 10.7091 13.7288C11.1781 13.9309 11.5439 14.0517 11.8282 14.1427C12.2981 14.2923 12.726 14.2704 13.0646 14.2205C13.4417 14.1645 14.2257 13.7463 14.3894 13.2878C14.553 12.8293 14.553 12.4364 14.504 12.3542C14.455 12.2719 14.3229 12.222 14.1277 12.124Z" fill="white"/>
</svg>
